<svg xmlns="http://www.w3.org/2000/svg" viewBox="0 0 420 390" role="img" aria-labelledby="title desc">
  <title id="title">UAP-News</title>
  <desc id="desc">Round UAP-News logo with a flying saucer, light beam, mountain scene, and metallic title.</desc>
  <defs>
    <radialGradient id="sky" cx="50%" cy="42%" r="58%">
      <stop offset="0" stop-color="#2e8fdc" stop-opacity="0.92"/>
      <stop offset="0.46" stop-color="#102f58"/>
      <stop offset="1" stop-color="#031026"/>
    </radialGradient>
    <linearGradient id="rim" x1="70" y1="28" x2="350" y2="318" gradientUnits="userSpaceOnUse">
      <stop offset="0" stop-color="#f4fbff"/>
      <stop offset="0.22" stop-color="#7da9cf"/>
      <stop offset="0.55" stop-color="#06162b"/>
      <stop offset="0.78" stop-color="#b6d8f4"/>
      <stop offset="1" stop-color="#071529"/>
    </linearGradient>
    <linearGradient id="metal" x1="62" y1="292" x2="360" y2="362" gradientUnits="userSpaceOnUse">
      <stop offset="0" stop-color="#eef6ff"/>
      <stop offset="0.12" stop-color="#8799ad"/>
      <stop offset="0.27" stop-color="#ffffff"/>
      <stop offset="0.48" stop-color="#10213b"/>
      <stop offset="0.66" stop-color="#bfe5ff"/>
      <stop offset="0.84" stop-color="#4b75aa"/>
      <stop offset="1" stop-color="#f7fbff"/>
    </linearGradient>
    <linearGradient id="beam" x1="210" y1="130" x2="210" y2="264" gradientUnits="userSpaceOnUse">
      <stop offset="0" stop-color="#ffffff" stop-opacity="0.96"/>
      <stop offset="0.35" stop-color="#aee8ff" stop-opacity="0.72"/>
      <stop offset="1" stop-color="#8cd6ff" stop-opacity="0"/>
    </linearGradient>
    <filter id="glow" x="-25%" y="-25%" width="150%" height="150%">
      <feGaussianBlur stdDeviation="4" result="blur"/>
      <feColorMatrix in="blur" type="matrix" values="0 0 0 0 0.1 0 0 0 0 0.65 0 0 0 0 1 0 0 0 .65 0" result="blue"/>
      <feMerge><feMergeNode in="blue"/><feMergeNode in="SourceGraphic"/></feMerge>
    </filter>
    <filter id="textShadow" x="-15%" y="-35%" width="130%" height="170%">
      <feDropShadow dx="0" dy="5" stdDeviation="3" flood-color="#000814" flood-opacity="0.78"/>
      <feDropShadow dx="0" dy="0" stdDeviation="2" flood-color="#9bd9ff" flood-opacity="0.45"/>
    </filter>
    <clipPath id="discClip"><circle cx="210" cy="168" r="142"/></clipPath>
  </defs>

  <rect width="420" height="390" fill="transparent"/>
  <g filter="url(#glow)">
    <circle cx="210" cy="168" r="150" fill="none" stroke="#0b1830" stroke-width="17"/>
    <circle cx="210" cy="168" r="146" fill="none" stroke="url(#rim)" stroke-width="9"/>
    <circle cx="210" cy="168" r="134" fill="url(#sky)" stroke="#0b1d36" stroke-width="2"/>
  </g>

  <g clip-path="url(#discClip)">
    <rect x="72" y="116" width="276" height="150" fill="url(#sky)"/>
    <path d="M 56 231 C 105 194 139 223 176 195 C 211 169 258 218 299 190 C 331 168 362 207 382 196 L 382 285 L 56 285 Z" fill="#07152b" opacity="0.8"/>
    <path d="M 54 254 C 99 224 140 246 178 222 C 217 198 259 237 303 214 C 339 194 372 224 390 218 L 390 294 L 54 294 Z" fill="#0c2947" opacity="0.82"/>
    <path d="M 80 269 C 128 250 167 266 212 246 C 252 228 310 260 361 238 L 361 305 L 80 305 Z" fill="#07101f" opacity="0.86"/>
    <path d="M 176 126 L 244 126 L 285 280 L 135 280 Z" fill="url(#beam)" opacity="0.84"/>
    <ellipse cx="210" cy="128" rx="91" ry="23" fill="#051022" stroke="#a9e9ff" stroke-width="1.7"/>
    <ellipse cx="210" cy="122" rx="70" ry="15" fill="#12345d" stroke="#d7f7ff" stroke-width="1.2"/>
    <ellipse cx="210" cy="119" rx="36" ry="8" fill="#d6f7ff" opacity="0.7"/>
    <path d="M 121 128 C 157 104 264 102 299 128 C 260 145 158 146 121 128 Z" fill="#07162b" stroke="#6bbced" stroke-width="1.5"/>
    <ellipse cx="210" cy="128" rx="89" ry="13" fill="#061226" opacity="0.62"/>
    <circle cx="163" cy="126" r="3.2" fill="#9ae6ff" opacity="0.9"/>
    <circle cx="209" cy="126" r="3.5" fill="#e8fbff" opacity="0.95"/>
    <circle cx="257" cy="126" r="3.2" fill="#9ae6ff" opacity="0.9"/>
  </g>

  <path d="M 70 280 C 112 306 307 306 350 280 L 344 314 C 286 337 136 337 77 314 Z" fill="#020712" opacity="0.93"/>
  <path d="M 70 301 C 118 322 301 322 350 301" fill="none" stroke="#c9ecff" stroke-width="2" opacity="0.6"/>

  <g filter="url(#textShadow)">
    <text x="52" y="334" font-family="Rajdhani, Arial Narrow, Arial, sans-serif" font-size="64" font-weight="800" font-style="italic" letter-spacing="-2" fill="url(#metal)" stroke="#071226" stroke-width="2.5">UAP-News</text>
    <text x="52" y="334" font-family="Rajdhani, Arial Narrow, Arial, sans-serif" font-size="64" font-weight="800" font-style="italic" letter-spacing="-2" fill="none" stroke="#e9f8ff" stroke-width="0.8" opacity="0.74">UAP-News</text>
  </g>
</svg>
